 <svg version="1.0" xmlns="http://www.w3.org/2000/svg" width="700.000000pt" height="483.000000pt" viewBox="0 0 700.000000 483.000000" preserveAspectRatio="xMidYMid meet">

<g transform="translate(0.000000,483.000000) scale(0.100000,-0.100000)" fill="#000000" stroke="none">
<path d="M2750 3015 l0 -105 -41 21 c-49 25 -134 27 -177 5 -113 -59 -156
-240 -88 -373 51 -102 161 -140 258 -90 44 22 47 22 51 5 4 -16 16 -18 86 -18
75 0 81 1 86 23 3 12 4 159 3 327 l-3 305 -87 3 -88 3 0 -106z m-29 -214 c21
-17 24 -27 24 -95 0 -64 -3 -79 -22 -97 -28 -29 -77 -29 -105 -2 -22 23 -35
102 -24 148 15 61 80 84 127 46z"></path>
<path d="M5080 2790 l0 -330 85 0 85 0 0 330 0 330 -85 0 -85 0 0 -330z"></path>
<path d="M5367 3114 c-14 -14 -8 -123 7 -131 8 -4 47 -6 88 -3 l73 5 0 65 0
65 -80 3 c-45 1 -84 0 -88 -4z"></path>
<path d="M5960 3015 c0 -58 -2 -105 -4 -105 -3 0 -21 10 -41 21 -85 51 -208
14 -262 -78 -36 -61 -45 -189 -18 -259 48 -126 169 -178 279 -119 44 23 46 24
46 5 0 -18 7 -20 85 -20 l85 0 0 330 0 330 -85 0 -85 0 0 -105z m-40 -205 c63
-33 46 -200 -22 -223 -64 -20 -116 50 -103 140 11 78 66 114 125 83z"></path>
<path d="M4633 3100 c-80 -17 -121 -48 -148 -113 -32 -76 -7 -183 52 -225 16
-11 71 -33 123 -47 124 -36 132 -40 128 -73 -7 -58 -112 -66 -231 -17 -34 14
-66 27 -72 28 -6 1 -10 -30 -10 -78 l0 -79 60 -20 c44 -14 90 -19 175 -20 101
-1 120 2 157 21 23 13 54 39 70 60 25 33 28 44 28 119 0 68 -4 87 -21 111 -30
40 -92 71 -176 89 -40 8 -84 21 -98 27 -30 15 -37 49 -14 67 24 21 138 16 208
-9 32 -11 62 -19 66 -16 4 2 6 37 5 77 l-3 73 -53 12 c-76 17 -197 23 -246 13z"></path>
<path d="M1143 2950 c-18 -4 -44 -15 -57 -24 -32 -20 -33 -20 -39 4 -5 19 -12
21 -84 18 l-78 -3 -3 -242 -2 -243 85 0 85 0 0 130 c0 149 12 194 57 211 28
11 81 8 116 -6 15 -6 17 1 17 73 0 74 -2 80 -22 86 -27 7 -32 6 -75 -4z"></path>
<path d="M1409 2950 c-111 -11 -119 -17 -119 -95 0 -36 1 -65 3 -65 1 0 28 9
60 20 92 32 207 24 207 -15 0 -12 -15 -15 -68 -15 -136 0 -209 -42 -233 -131
-11 -41 -10 -53 5 -93 37 -96 160 -135 259 -82 45 24 47 25 47 6 0 -18 7 -20
85 -20 l85 0 0 163 c0 89 -5 179 -10 199 -30 105 -129 145 -321 128z m155
-289 c12 -19 -15 -62 -48 -78 -32 -15 -36 -15 -61 1 -52 34 -12 86 67 86 20 0
39 -4 42 -9z"></path>
<path d="M2111 2948 c-19 -5 -44 -16 -55 -24 -27 -19 -33 -18 -39 6 -5 19 -12
21 -84 18 l-78 -3 0 -240 0 -240 83 -3 82 -3 0 128 c0 176 12 213 72 228 19 5
32 1 47 -14 20 -20 21 -32 21 -181 l0 -160 85 0 85 0 0 182 c0 163 -2 186 -21
224 -33 70 -118 105 -198 82z"></path>
<path d="M3212 2949 c-120 -16 -204 -112 -204 -235 -1 -156 78 -247 226 -261
172 -16 282 70 294 228 13 187 -114 295 -316 268z m113 -149 c23 -26 33 -128
16 -169 -21 -48 -81 -65 -120 -33 -45 35 -48 156 -5 203 24 26 85 26 109 -1z"></path>
<path d="M3856 2945 c-21 -7 -43 -18 -49 -24 -16 -16 -24 -13 -30 9 -5 19 -12
21 -84 18 l-78 -3 -3 -242 -2 -243 85 0 85 0 0 128 c0 70 5 144 11 165 13 48
50 74 84 59 24 -11 25 -12 27 -179 l3 -168 85 0 85 0 5 158 c5 152 6 160 29
178 28 23 41 24 67 5 17 -13 19 -30 22 -180 l3 -166 85 0 84 0 0 173 c-1 179
-9 227 -47 269 -30 34 -72 49 -131 49 -46 0 -63 -5 -99 -31 l-44 -31 -30 25
c-26 23 -87 47 -114 46 -5 -1 -27 -7 -49 -15z"></path>
<path d="M6425 2949 c-140 -18 -225 -127 -212 -269 8 -92 53 -161 132 -203 55
-30 223 -30 305 -1 l55 19 3 59 c2 32 -1 63 -6 68 -5 5 -28 0 -54 -12 -69 -30
-144 -42 -189 -30 -38 10 -73 45 -63 62 3 4 77 8 164 8 184 0 178 -4 159 104
-24 143 -136 217 -294 195z m97 -136 c35 -41 33 -43 -46 -43 -60 0 -76 3 -76
14 0 40 94 62 122 29z"></path>
<path d="M5372 2942 c-9 -7 -12 -62 -10 -243 l3 -234 85 0 85 0 3 234 c2 181
-1 236 -10 243 -7 4 -42 8 -78 8 -36 0 -71 -4 -78 -8z"></path>
</g>
</svg>